<svg xmlns="http://www.w3.org/2000/svg" xmlns:xlink="http://www.w3.org/1999/xlink" version="1.1" id="Layer_1" x="0px" y="0px" style="enable-background:new 0 0 841.89 595.28;" xml:space="preserve" viewBox="141.48 182.82 186.42 186.42">
<style type="text/css">
	.st0{fill:#1E1E1C;}
	.st1{fill:#05837E;}
	.st2{opacity:0.39;fill:url(#SVGID_1_);}
	.st3{fill:#FFFFFF;}
	.st4{fill:#F5AF62;}
	.st5{fill:#FBD873;}
	.st6{fill:#F8CB73;}
	.st7{fill:#F7BC6A;}
	.st8{fill:#F7C371;}
</style>
<g>
	<circle class="st1" cx="234.69" cy="276.03" r="93.21"/>
	<linearGradient id="SVGID_1_" gradientUnits="userSpaceOnUse" x1="244.1077" y1="291.5363" x2="344.2032" y2="461.9115">
		<stop offset="0" style="stop-color:#FFFFFF"/>
		<stop offset="1" style="stop-color:#1E1E1C"/>
	</linearGradient>
	<path class="st2" d="M234.98,276.03l-71.95,36.75c-5.81-11.38-8.84-23.97-8.84-36.75c0-44.32,36.47-80.79,80.79-80.79   s80.79,36.47,80.79,80.79c0,11.67-2.53,23.21-7.42,33.82L234.98,276.03z"/>
	<g>
		<path class="st1" d="M170.72,239.83c2.36-1.22,4.6-2.39,6.86-3.54c18.77-9.65,37.54-19.3,56.29-28.98    c0.93-0.48,1.58-0.43,2.47,0.03c20.7,10.68,41.42,21.33,62.14,31.98c0.27,0.14,0.52,0.31,0.94,0.57c-2.73,1.41-5.32,2.76-7.92,4.1    c-5.73,2.94-11.46,5.87-17.19,8.82c-0.39,0.2-0.76,0.46-1.13,0.69c-1.58,1.37-3.6,2.1-5.46,3.06    c-10.62,5.48-21.26,10.93-31.87,16.43c-0.46,0.24-1.02,0.24-1.48,0c-10.1-5.19-20.19-10.38-30.29-15.59    c-1.79-0.92-3.59-1.83-5.38-2.75c-0.63-0.32-1.32-0.6-1.75-1.17"/>
	</g>
	<g>
		<path class="st3" d="M175.43,243.88c2.18-1.13,4.26-2.21,6.34-3.28c17.37-8.93,34.74-17.86,52.09-26.82    c0.86-0.44,1.47-0.4,2.29,0.02c19.16,9.88,38.33,19.74,57.5,29.6c0.25,0.13,0.48,0.29,0.87,0.53c-2.52,1.31-4.92,2.56-7.33,3.79    c-5.3,2.72-10.61,5.44-15.91,8.16c-0.37,0.19-0.7,0.42-1.05,0.64c-1.46,1.27-3.33,1.95-5.05,2.83    c-9.83,5.07-19.68,10.11-29.49,15.2c-0.43,0.22-0.94,0.22-1.37,0c-9.35-4.8-18.69-9.61-28.03-14.42    c-1.66-0.85-3.32-1.69-4.98-2.54c-0.59-0.3-1.22-0.55-1.62-1.08"/>
	</g>
	<path class="st1" d="M274.1,253.88c0.34,17.34-2.99,15.42-37.67,13.65c-37.67-1.92-37.67-1.6-37.67-13.65   c0-7.54,16.88-13.02,37.68-13.02S273.95,246.34,274.1,253.88z"/>
	<path class="st3" d="M198.73,280.67c0,0.16,0.17,0.3,0.39,0.3h74.29c0.21,0,0.67-0.44,0.67-0.6v-23.96   c-7.68-11.43-62.02-16.91-75.34,1.48"/>
	<ellipse class="st1" cx="236.4" cy="280.14" rx="37.67" ry="13.65"/>
	<ellipse class="st3" cx="236.4" cy="284.88" rx="37.67" ry="13.65"/>
	<ellipse class="st1" cx="236.4" cy="286.78" rx="33.4" ry="9.67"/>
	<polygon class="st3" points="181.77,275.52 184.38,276.03 184.38,244.61 181.77,244.1  "/>
	<circle class="st3" cx="183.07" cy="280.14" r="4.64"/>
	<g>
		<path class="st4" d="M241.21,287.36c3.52,0.45,6.88,1.49,10.1,2.93c4.87,2.17,8.63,5.55,10.76,10.54    c1.75,4.11,2.19,8.42,1.84,12.86c-0.56,7-2.7,13.53-5.79,19.77c-1.14,2.3-2.4,4.55-4.16,6.47c-0.19,0.21-0.33,0.48-0.73,0.55    c0.8-5.62,2.12-11.17,1.45-16.87c-2.22,13.86-7.8,26.04-17.79,36.31c-0.1-1.37-0.15-2.55-0.29-3.73    c-0.55-4.82-1.81-9.4-4.76-13.37c-0.82-1.1-1.76-2.08-2.82-2.96c-5.1-4.25-8.24-9.73-9.99-16.07c-0.07-0.24-0.14-0.49-0.21-0.73    c-0.01-0.03-0.04-0.04-0.23-0.22c-0.34,6.21,0.54,12.13,1.95,18.27c-1.1-1.09-1.87-2.12-2.63-3.15    c-4.08-5.49-7.1-11.48-8.46-18.23c-1.17-5.83-0.85-11.57,1.31-17.12c1.37-3.52,3.76-6.39,6.53-8.92c3.67-3.35,7.97-5.5,12.86-6.41    c0.93-0.17,1.87-0.35,2.83-0.32c0.06,0.1,0.05,0.19-0.02,0.28c-1.49,0.61-3.05,1.05-4.43,1.94c-3.4,2.18-5.76,5.2-7.36,8.88    c-1.64,3.78-2.57,7.71-2.41,11.85c0.17,4.44,1.45,8.55,4.03,12.51c0.02-0.89,0.09-1.56,0.19-2.22c0.69-4.62,5.01-6,8.56-4.07    c4.22,2.29,6.5,5.9,7.2,10.6c0.53,3.54-0.06,6.95-0.99,10.39c2.1-2.45,3.12-5.33,3.51-8.43c0.58-4.64,0.21-9.24-0.9-13.79    c-0.46-1.9-0.63-3.82-0.12-5.75c0.52-2,1.76-3.06,3.67-3.15c2.79-0.14,4.56,2.01,3.87,4.72c-0.24,0.95-0.63,1.87-0.91,2.81    c-0.78,2.62-1.08,5.28-0.49,7.98c0.11,0.52,0.22,1.04,0.53,1.58c0.67-1.67,1.27-3.29,1.99-4.87c0.89-1.94,2.1-3.7,3.1-5.58    c3.51-6.6,2.56-14.25-2.51-19.71c-2.04-2.2-4.53-3.76-7.4-4.7c-0.47-0.15-1.01-0.22-1.33-0.68    C240.8,287.24,240.99,287.25,241.21,287.36z"/>
		<path class="st5" d="M240.81,287.56c3.38,0.91,6.36,2.53,8.76,5.08c2.54,2.69,4.1,5.85,4.6,9.57c0.61,4.5-0.54,8.52-2.92,12.27    c-1.66,2.61-2.87,5.43-3.94,8.31c-0.11,0.28-0.2,0.57-0.35,0.97c-0.51-0.81-0.68-1.6-0.86-2.4c-0.58-2.7-0.22-5.32,0.52-7.93    c0.35-1.21,0.97-2.35,1.04-3.64c0.14-2.84-2.13-3.84-4.26-3.49c-2.22,0.37-2.9,1.87-3.15,4.45c-0.18,1.88,0.32,3.69,0.69,5.53    c1.07,5.42,1.44,10.84-0.29,16.22c-0.64,1.98-1.68,3.73-3.25,5.2c0.28-1.23,0.59-2.44,0.84-3.68c0.83-4.2,0.71-8.32-1.28-12.21    c-1.48-2.87-3.78-4.92-6.82-6.01c-3.25-1.16-6.43,0.95-6.89,4.37c-0.12,0.88-0.14,1.76-0.19,2.64c-0.36,0.06-0.44-0.22-0.57-0.42    c-2.13-3.3-3.43-6.87-3.83-10.8c-0.65-6.39,0.96-12.19,4.41-17.49c2.13-3.26,5.08-5.61,8.89-6.76c0.34-0.1,0.66-0.22,1.02-0.18    c0.62-0.55,1.42-0.1,2.09-0.35c1.15,0.03,2.31-0.2,3.44,0.17c0.35,0.21,0.75,0.02,1.12,0.12    C239.97,287.41,240.51,287.16,240.81,287.56z"/>
		<path class="st6" d="M235.07,286.83c-0.66,0.34-1.43,0.03-2.09,0.35c0-0.07,0-0.14,0-0.22    C233.67,286.67,234.37,286.83,235.07,286.83z"/>
		<path class="st7" d="M240.81,287.56c-0.38-0.12-0.81-0.09-1.14-0.37c0.07-0.08,0.14-0.08,0.23-0.03c0.44,0.03,0.91-0.07,1.32,0.2    C241.05,287.38,240.9,287.4,240.81,287.56z"/>
		<path class="st8" d="M239.89,287.16c-0.08,0.01-0.15,0.02-0.23,0.03c-0.38-0.07-0.81,0.15-1.15-0.19    C238.98,287.02,239.46,286.88,239.89,287.16z"/>
	</g>
	<circle class="st3" cx="183.07" cy="280.14" r="7.22"/>
</g>
</svg>